Coordinates
version=1
nRows=17
nColumns=33
inDegrees=yes

Units are S.I. units (second, meters, Newtons, ...)
Angles are in degrees.

endheader
time	ground_thorax_rot_x	ground_thorax_rot_y	ground_thorax_rot_z	ground_thorax_tx	ground_thorax_ty	ground_thorax_tz	clav_prot_r	clav_elev_r	scapula_abduction_r	scapula_elevation_r	scapula_upward_rot_r	scapula_winging_r	shoulder_elv_r	plane_of_elev_r	axial_rot_r	elbow_flexion_r	pro_sup_r	wrist_flex_r	wrist_dev_r	clav_prot_l	clav_elev_l	scapula_abduction_l	scapula_elevation_l	scapula_upward_rot_l	scapula_winging_l	shoulder_elv_l	plane_of_elev_l	axial_rot_l	elbow_flexion_l	pro_sup_l	wrist_flex_l	wrist_dev_l
      2.64000000	     35.35991910	     16.72315289	     24.87572110	   -174.90353520	    820.46804144	      7.15063538	     15.32414051	     38.02991516	     39.45200378	     45.00000000	    -45.00000000	    -87.25006603	  -3526.03606545	     33.68661698	     27.95152941	   1095.68514381	     54.77965209	     18.59485879	      4.33253378	     10.33177524	    -45.00000000	    -39.19590946	     45.00000000	    -41.22681115	   -261.46479233	  -1725.53072726	     23.03045228	    -25.13480804	      7.70518493	     10.42465877	     11.43409004	    -20.98689150
      2.65000000	     35.53699573	     16.25086310	     24.38304427	   -179.95898160	    822.75910811	      7.15724218	     15.55341442	     37.97738272	     39.55474996	     45.00000000	    -45.00000000	    -87.46009160	  -3525.95703702	     33.45520551	     29.50105374	   1095.92829813	     56.24239195	     17.93405382	      3.81217703	     10.42483896	    -45.00000000	    -39.16085860	     45.00000000	    -40.86299200	   -260.96098410	  -1725.28261580	     22.87528661	    -26.60917501	      7.84255153	     10.15959611	     11.20737238	    -21.14993675
      2.66000000	     35.89500493	     15.48474225	     23.20473799	   -184.92209595	    824.93924373	      7.17059366	     15.52089590	     38.03311392	     39.51826775	     45.00000000	    -45.00000000	    -88.33287721	  -3526.07567957	     34.18124535	     32.10438826	   1096.29840601	     57.71061229	     17.54043436	      3.53467736	      9.99114370	    -45.00000000	    -39.75468951	     45.00000000	    -39.00141815	   -260.61847931	  -1725.24408518	     22.25859665	    -27.47036433	      8.01491234	      9.73847659	     11.42552423	    -21.22984111
      2.67000000	     35.99641688	     15.20593898	     23.10929401	   -189.78092119	    826.99775199	      7.18990319	     15.46520594	     38.04681106	     39.36293637	     45.00000000	    -45.00000000	    -87.78708801	  -3525.57583230	     33.31153245	     31.18789261	   1096.55255922	     60.84203073	     17.43927860	      3.58932718	     10.45671579	    -45.00000000	    -39.06370618	     45.00000000	    -41.26082828	   -260.46737486	  -1724.76704266	     22.63857603	    -27.71420863	      8.09717062	      8.50441115	     10.77316661	    -21.18813826
      2.68000000	     36.21173900	     14.73159341	     22.50838236	   -194.51818860	    828.92205283	      7.21681223	     15.41516356	     37.88597653	     39.38168154	     45.00000000	    -45.00000000	    -88.05400857	  -3525.63320141	     33.20269534	     32.23558528	   1096.89772859	     64.47872749	     17.05405809	      3.46486675	     10.48241767	    -45.00000000	    -38.96953457	     45.00000000	    -41.47880033	   -260.20463330	  -1724.61868296	     22.60914124	    -28.19032246	      8.13676126	      7.51741076	     10.72171247	    -21.12430929
      2.69000000	     36.42772521	     14.29542642	     21.98829738	   -199.12592601	    830.70474288	      7.25326024	     15.37080303	     37.87392458	     39.25632574	     45.00000000	    -45.00000000	    -88.22095351	  -3525.51405037	     33.12253716	     33.30628022	   1097.47209271	     68.90387839	     16.73111461	      3.38861418	     10.51306639	    -45.00000000	    -38.85153661	     45.00000000	    -41.96627641	   -259.98754755	  -1724.44504785	     22.53384258	    -28.59285213	      8.20042398	      6.56705884	     10.56782326	    -21.05309635
      2.70000000	     36.63934575	     13.88360771	     21.46654017	   -203.59216209	    832.33780252	      7.30108233	     15.35342294	     37.80396226	     39.19695223	     45.00000000	    -45.00000000	    -88.45221011	  -3525.53575519	     32.97234860	     34.73108525	   1098.12066429	     73.62706053	     16.26276850	      3.29813693	     10.50037428	    -45.00000000	    -38.75182440	     45.00000000	    -42.21400974	   -259.73908902	  -1724.34008399	     22.45305046	    -29.13574442	      8.25449108	      5.84864981	     10.53444190	    -20.99642298
      2.71000000	     36.83793235	     13.37278941	     20.72028806	   -207.90657261	    833.81543647	      7.36100406	     15.37069573	     37.64076982	     39.04238987	     45.00000000	    -45.00000000	    -89.03845439	  -3525.90540574	     33.57896536	     37.01367181	   1098.20268514	     77.26951676	     15.79718252	      3.30464107	     10.16188333	    -45.00000000	    -39.07727687	     45.00000000	    -40.98183323	   -259.44916078	  -1724.32679220	     21.94362203	    -30.12549585	      8.08153000	      5.62130502	     10.84644593	    -20.95358168
      2.72000000	     36.96030441	     13.08595416	     20.49348288	   -212.06687294	    835.13749022	      7.43205397	     15.31186651	     37.65521476	     38.98456166	     45.00000000	    -45.00000000	    -88.74081747	  -3525.80127329	     32.89630210	     37.80817301	   1098.85638116	     82.28723861	     15.48869199	      3.37189850	     10.39439277	    -45.00000000	    -38.69781286	     45.00000000	    -42.51704382	   -259.20022956	  -1724.12953928	     22.12132451	    -30.36458295	      8.28381277	      5.02944120	     10.47203653	    -20.90456886
      2.73000000	     37.23656921	     12.77028082	     19.93070117	   -216.05722611	    836.29912419	      7.51251584	     14.75973022	     38.08136202	     38.45925121	     45.00000000	    -45.00000000	    -88.70378802	  -3525.46222851	     32.80816893	     38.88342305	   1100.35487529	     93.97799280	     16.05258285	      3.46299001	     10.72301976	    -45.00000000	    -38.14112843	     45.00000000	    -45.00000000	   -259.66778584	  -1724.07634642	     22.61066427	    -27.79776676	      8.06351154	      3.57074079	      9.90968152	    -20.59731104
      2.74000000	     37.35564566	     12.53848999	     19.68001235	   -219.87663230	    837.29975068	      7.60083584	     15.03653078	     37.86094820	     38.35215947	     45.00000000	    -45.00000000	    -88.80120336	  -3525.68658156	     32.57271528	     42.25070384	   1101.27971149	    102.52006858	     14.93741380	      3.60888315	     10.65131223	    -45.00000000	    -37.94266549	     45.00000000	    -45.00000000	   -259.21809415	  -1724.00848669	     22.41538519	    -29.61702057	      8.16521711	      3.89675182	      9.87759818	    -20.67231245
      2.75000000	     37.49528846	     12.16645970	     18.98987547	   -223.51368298	    838.14110443	      7.69422205	     15.06492263	     37.60638016	     38.20589772	     45.00000000	    -45.00000000	    -89.52705794	  -3526.40181679	     33.16797518	     45.07583011	   1101.51950450	    106.84266991	     14.37290174	      3.85923030	     10.11700936	    -45.00000000	    -38.44434899	     45.00000000	    -42.47680988	   -258.86610987	  -1724.23932357	     21.59634998	    -31.12480099	      7.88686846	      4.38509892	     10.63651920	    -20.75469952
      2.76000000	     37.56786225	     12.05892439	     18.94907048	   -226.95329419	    838.82493719	      7.78885167	     15.13407086	     37.43077329	     38.19067005	     45.00000000	    -45.00000000	    -89.11487533	  -3526.39620926	     32.26555694	     46.70296490	   1102.13386954	    113.02409607	     14.08566400	      4.07282948	     10.47039049	    -45.00000000	    -37.97794609	     45.00000000	    -45.00000000	   -258.60789922	  -1724.07146688	     21.97945115	    -31.46673159	      8.41242677	      4.42387344	     10.05761074	    -20.79912224
      2.77000000	     37.66599831	     11.80147910	     18.65224093	   -230.18440089	    839.35172314	      7.88111647	     14.93775394	     37.62200229	     37.96714611	     45.00000000	    -45.00000000	    -89.23496841	  -3526.60637405	     32.18096434	     48.86153669	   1102.72005988	    118.40597359	     14.08243547	      4.13374225	     10.40172046	    -45.00000000	    -37.77988591	     45.00000000	    -45.00000000	   -258.51013312	  -1724.11445826	     21.79928663	    -31.36283369	      8.32742654	      4.65217345	     10.01214917	    -20.81878104
      2.78000000	     37.76069307	     11.58683491	     18.26010308	   -233.19690891	    839.72289137	      7.96556691	     14.87903182	     37.72148300	     37.63425731	     45.00000000	    -45.00000000	    -89.24650695	  -3527.35113391	     31.63409691	     59.14403873	   1104.37749169	    152.69724732	     13.43753749	      4.95280927	     10.14706283	    -45.00000000	    -37.72276428	     45.00000000	    -45.00000000	   -258.57763208	  -1724.27622458	     21.75578263	    -29.72285528	      7.89826374	      6.91719164	     10.07733675	    -21.32807920
      2.79000000	     37.85495460	     11.43770568	     18.02583253	   -235.98424250	    839.94366958	      8.03562056	     14.72863273	     37.66414025	     37.57588820	     45.00000000	    -45.00000000	    -89.41112529	  -3527.58313586	     31.53461268	     59.96037766	   1104.39132001	    152.29868763	     13.41396642	      5.13478579	     10.25219019	    -45.00000000	    -37.58727016	     45.00000000	    -45.00000000	   -258.27729426	  -1724.29001075	     21.50192053	    -31.48962393	      8.10837399	      7.42928991	      9.82929381	    -21.14945324
      2.80000000	     37.92133912	     11.29769921	     17.79244319	   -238.53958749	    840.01529778	      8.08485262	     14.62881503	     37.68697693	     37.38497256	     45.00000000	    -45.00000000	    -89.41181422	  -3527.68324602	     31.43970800	     60.38763195	   1104.42229052	    151.81156012	     13.45688615	      5.03979169	     10.18162827	    -45.00000000	    -37.43646533	     45.00000000	    -45.00000000	   -258.14039781	  -1724.34618062	     21.28238806	    -32.13025005	      8.09629531	      7.81301700	      9.68082831	    -21.16948899
